<svg width="10" height="10" viewBox="0 0 10 10" fill="none" xmlns="http://www.w3.org/2000/svg">
<circle cx="5" cy="5" r="5" fill="#1FA1FF"/>
<path fill-rule="evenodd" clip-rule="evenodd" d="M5.5 3C5.5 2.72386 5.27614 2.5 5 2.5C4.72386 2.5 4.5 2.72386 4.5 3L4.5 4.5H3C2.72386 4.5 2.5 4.72386 2.5 5C2.5 5.27614 2.72386 5.5 3 5.5H4.5L4.5 7C4.5 7.27614 4.72386 7.5 5 7.5C5.27614 7.5 5.5 7.27614 5.5 7L5.5 5.5H7C7.27614 5.5 7.5 5.27614 7.5 5C7.5 4.72386 7.27614 4.5 7 4.5H5.5L5.5 3Z" fill="white"/>
</svg>
